<?xml version="1.0" encoding="utf-8"?>
<!-- Generator: Adobe Illustrator 16.0.0, SVG Export Plug-In . SVG Version: 6.00 Build 0)  -->
<!DOCTYPE svg PUBLIC "-//W3C//DTD SVG 1.1//EN" "http://www.w3.org/Graphics/SVG/1.1/DTD/svg11.dtd">
<svg version="1.1" id="Layer_1" xmlns="http://www.w3.org/2000/svg" xmlns:xlink="http://www.w3.org/1999/xlink" x="0px" y="0px"
	 width="36px" height="36px" viewBox="0 0 36 36" enable-background="new 0 0 36 36" xml:space="preserve">
<path opacity="0.8" fill-rule="evenodd" clip-rule="evenodd" fill="#6E5391" d="M11.968,13.08l12.03,13.175l-7.123,7.357
	c0,0-0.657,1.039-2.824,0.896L8.188,34.67c0,0-1.222-0.771-1.855-1.651l-5.321-5.881c0,0-0.912-2.105,0.509-3.251L11.968,13.08z"/>
<path fill-rule="evenodd" clip-rule="evenodd" fill="none" stroke="#6E5391" stroke-width="0.7" stroke-miterlimit="10" d="
	M21.835,2.932c0,0,1.824-1.899,3.455-0.292l9.454,9.589c0,0,1.823,1.704-0.145,3.603L17.566,33.014c0,0-0.864,1.217-3.024,1.217
	l-5.565-0.098c0,0-1.007,0.292-2.735-1.606l-5.134-5.257c0,0-1.488-1.899,0.144-3.506L21.835,2.932z"/>
<path fill-rule="evenodd" clip-rule="evenodd" fill="none" stroke="#6E5391" stroke-width="0.7" stroke-miterlimit="10" d="
	M17.205,34.397h8.253"/>
<path fill-rule="evenodd" clip-rule="evenodd" fill="none" stroke="#6E5391" stroke-width="0.7" stroke-miterlimit="10" d="
	M11.967,13.114l12.267,13.055"/>
<path fill-rule="evenodd" clip-rule="evenodd" fill="none" stroke="#6E5391" stroke-width="0.7" stroke-miterlimit="10" d="
	M33.952,16.638l-7.39-7.448"/>
<path fill-rule="evenodd" clip-rule="evenodd" fill="none" stroke="#6E5391" stroke-width="0.7" stroke-miterlimit="10" d="
	M22.492,5.283l2.591,2.531"/>
</svg>
