<?xml version="1.0" encoding="utf-8"?>
<!-- Generator: Adobe Illustrator 16.0.0, SVG Export Plug-In . SVG Version: 6.00 Build 0)  -->
<!DOCTYPE svg PUBLIC "-//W3C//DTD SVG 1.1//EN" "http://www.w3.org/Graphics/SVG/1.1/DTD/svg11.dtd">
<svg version="1.1" xmlns="http://www.w3.org/2000/svg" xmlns:xlink="http://www.w3.org/1999/xlink" x="0px" y="0px" width="37.25px"
	 height="37.5px" viewBox="0 0 37.25 37.5" enable-background="new 0 0 37.25 37.5" xml:space="preserve">
<g id="Layer_2">
	<path opacity="0.8" fill="#5D5E5E" d="M29.622,26.354c0,2.761-2.239,5-5,5H5.965c-2.761,0-5-2.239-5-5V6.09c0-2.761,2.239-5,5-5
		h18.657c2.761,0,5,2.239,5,5V26.354z"/>
	<path fill="none" stroke="#5D5E5E" stroke-width="0.7" stroke-miterlimit="10" d="M29.622,26.354c0,2.761-2.239,5-5,5H5.965
		c-2.761,0-5-2.239-5-5V6.09c0-2.761,2.239-5,5-5h18.657c2.761,0,5,2.239,5,5V26.354z"/>
	<path fill="#FFFFFF" stroke="#5D5E5E" stroke-width="0.7" stroke-miterlimit="10" d="M36.625,31.75c0,2.761-2.239,5-5,5H12.968
		c-2.761,0-5-2.239-5-5V11.487c0-2.761,2.239-5,5-5h18.657c2.761,0,5,2.239,5,5V31.75z"/>
	<rect x="12.125" y="14.167" fill="#5D5E5E" width="17.542" height="0.708"/>
	<rect x="15" y="19.458" fill="#5D5E5E" width="17.542" height="0.708"/>
	<rect x="12.125" y="24.792" fill="#5D5E5E" width="17.542" height="0.708"/>
	<rect x="15.042" y="30.083" fill="#5D5E5E" width="17.542" height="0.708"/>
</g>
<g id="Layer_3" display="none">
</g>
</svg>
